<svg width="162" height="38" viewBox="0 0 162 38" fill="none" xmlns="http://www.w3.org/2000/svg">
<g clip-path="url(#clip0_1_7)">
<path d="M41 0H32.3725C29.4199 0 27.8989 1.11038 25.7708 3.78294C23.9015 6.13098 2.22399 32.5734 0 35.7391C13.6794 36.7 22.9141 26.1974 24.5022 24.2503L21.5848 23.4103V22.9458L25.0486 22.7549L27.4068 19.796L22.6968 17.7375L22.5403 17.1807L29.062 17.6771C31.7813 14.2696 32.9668 13.8878 33.2959 14.1487C33.625 14.4064 33.5452 15.6631 30.8259 19.0706L32.7911 25.2843L32.2095 25.2589L29.1259 21.1578L26.7646 24.1167L27.3621 27.5178L26.9083 27.626L25.4161 24.9725C24.1667 26.4329 19.8178 32.0548 23.1634 36.0032H40.9904V0H41Z" fill="white"/>
<path fill-rule="evenodd" clip-rule="evenodd" d="M40.9863 0C36.417 9.0074 27.1203 15.2117 16.3613 15.3477C18.0139 13.3176 19.5856 11.3893 20.9589 9.70432C23.4479 6.65049 25.2855 4.39585 25.7735 3.78294C27.9016 1.11038 29.4226 0 32.3752 0H40.9863Z" fill="url(#paint0_radial_1_7)"/>
</g>
<path d="M51.792 21.304C51.792 19.96 52.056 18.768 52.584 17.728C53.128 16.688 53.856 15.888 54.768 15.328C55.696 14.768 56.728 14.488 57.864 14.488C58.856 14.488 59.72 14.688 60.456 15.088C61.208 15.488 61.808 15.992 62.256 16.6V14.704H65.64V28H62.256V26.056C61.824 26.68 61.224 27.2 60.456 27.616C59.704 28.016 58.832 28.216 57.84 28.216C56.72 28.216 55.696 27.928 54.768 27.352C53.856 26.776 53.128 25.968 52.584 24.928C52.056 23.872 51.792 22.664 51.792 21.304ZM62.256 21.352C62.256 20.536 62.096 19.84 61.776 19.264C61.456 18.672 61.024 18.224 60.48 17.92C59.936 17.6 59.352 17.44 58.728 17.44C58.104 17.44 57.528 17.592 57 17.896C56.472 18.2 56.04 18.648 55.704 19.24C55.384 19.816 55.224 20.504 55.224 21.304C55.224 22.104 55.384 22.808 55.704 23.416C56.04 24.008 56.472 24.464 57 24.784C57.544 25.104 58.12 25.264 58.728 25.264C59.352 25.264 59.936 25.112 60.48 24.808C61.024 24.488 61.456 24.04 61.776 23.464C62.096 22.872 62.256 22.168 62.256 21.352ZM70.6256 13.12C70.0336 13.12 69.5376 12.936 69.1376 12.568C68.7536 12.184 68.5616 11.712 68.5616 11.152C68.5616 10.592 68.7536 10.128 69.1376 9.76C69.5376 9.376 70.0336 9.184 70.6256 9.184C71.2176 9.184 71.7056 9.376 72.0896 9.76C72.4896 10.128 72.6896 10.592 72.6896 11.152C72.6896 11.712 72.4896 12.184 72.0896 12.568C71.7056 12.936 71.2176 13.12 70.6256 13.12ZM72.2816 14.704V28H68.9216V14.704H72.2816ZM78.9613 16.768C79.3933 16.064 79.9533 15.512 80.6413 15.112C81.3453 14.712 82.1453 14.512 83.0413 14.512V18.04H82.1533C81.0973 18.04 80.2973 18.288 79.7533 18.784C79.2253 19.28 78.9613 20.144 78.9613 21.376V28H75.6013V14.704H78.9613V16.768ZM89.2164 17.464V23.896C89.2164 24.344 89.3204 24.672 89.5284 24.88C89.7524 25.072 90.1204 25.168 90.6324 25.168H92.1924V28H90.0804C87.2484 28 85.8324 26.624 85.8324 23.872V17.464H84.2484V14.704H85.8324V11.416H89.2164V14.704H92.1924V17.464H89.2164ZM97.9691 16.768C98.4011 16.064 98.9611 15.512 99.6491 15.112C100.353 14.712 101.153 14.512 102.049 14.512V18.04H101.161C100.105 18.04 99.3051 18.288 98.7611 18.784C98.2331 19.28 97.9691 20.144 97.9691 21.376V28H94.6091V14.704H97.9691V16.768ZM103.448 21.304C103.448 19.96 103.712 18.768 104.24 17.728C104.784 16.688 105.512 15.888 106.424 15.328C107.352 14.768 108.384 14.488 109.52 14.488C110.512 14.488 111.376 14.688 112.112 15.088C112.864 15.488 113.464 15.992 113.912 16.6V14.704H117.296V28H113.912V26.056C113.48 26.68 112.88 27.2 112.112 27.616C111.36 28.016 110.488 28.216 109.496 28.216C108.376 28.216 107.352 27.928 106.424 27.352C105.512 26.776 104.784 25.968 104.24 24.928C103.712 23.872 103.448 22.664 103.448 21.304ZM113.912 21.352C113.912 20.536 113.752 19.84 113.432 19.264C113.112 18.672 112.68 18.224 112.136 17.92C111.592 17.6 111.008 17.44 110.384 17.44C109.76 17.44 109.184 17.592 108.656 17.896C108.128 18.2 107.696 18.648 107.36 19.24C107.04 19.816 106.88 20.504 106.88 21.304C106.88 22.104 107.04 22.808 107.36 23.416C107.696 24.008 108.128 24.464 108.656 24.784C109.2 25.104 109.776 25.264 110.384 25.264C111.008 25.264 111.592 25.112 112.136 24.808C112.68 24.488 113.112 24.04 113.432 23.464C113.752 22.872 113.912 22.168 113.912 21.352ZM126.122 24.904L129.482 14.704H133.058L128.138 28H124.058L119.162 14.704H122.762L126.122 24.904ZM147.305 21.064C147.305 21.544 147.273 21.976 147.209 22.36H137.489C137.569 23.32 137.905 24.072 138.497 24.616C139.089 25.16 139.817 25.432 140.681 25.432C141.929 25.432 142.817 24.896 143.345 23.824H146.969C146.585 25.104 145.849 26.16 144.761 26.992C143.673 27.808 142.337 28.216 140.753 28.216C139.473 28.216 138.321 27.936 137.297 27.376C136.289 26.8 135.497 25.992 134.921 24.952C134.361 23.912 134.081 22.712 134.081 21.352C134.081 19.976 134.361 18.768 134.921 17.728C135.481 16.688 136.265 15.888 137.273 15.328C138.281 14.768 139.441 14.488 140.753 14.488C142.017 14.488 143.145 14.76 144.137 15.304C145.145 15.848 145.921 16.624 146.465 17.632C147.025 18.624 147.305 19.768 147.305 21.064ZM143.825 20.104C143.809 19.24 143.497 18.552 142.889 18.04C142.281 17.512 141.537 17.248 140.657 17.248C139.825 17.248 139.121 17.504 138.545 18.016C137.985 18.512 137.641 19.208 137.513 20.104H143.825ZM153.118 10.24V28H149.758V10.24H153.118Z" fill="white"/>
<path d="M158.144 28.168C157.536 28.168 157.032 27.984 156.632 27.616C156.248 27.232 156.056 26.76 156.056 26.2C156.056 25.64 156.248 25.176 156.632 24.808C157.032 24.424 157.536 24.232 158.144 24.232C158.736 24.232 159.224 24.424 159.608 24.808C159.992 25.176 160.184 25.64 160.184 26.2C160.184 26.76 159.992 27.232 159.608 27.616C159.224 27.984 158.736 28.168 158.144 28.168Z" fill="url(#paint1_radial_1_7)"/>
<defs>
<radialGradient id="paint0_radial_1_7" cx="0" cy="0" r="1" gradientUnits="userSpaceOnUse" gradientTransform="translate(41) rotate(147.995) scale(28.3019 45.6056)">
<stop stop-color="#FFF48E"/>
<stop offset="1" stop-color="#FF9900"/>
</radialGradient>
<radialGradient id="paint1_radial_1_7" cx="0" cy="0" r="1" gradientUnits="userSpaceOnUse" gradientTransform="translate(162.004 2) rotate(100.974) scale(35.8397 24.0132)">
<stop stop-color="#FFF48E"/>
<stop offset="1" stop-color="#FF9900"/>
</radialGradient>
<clipPath id="clip0_1_7">
<rect width="41" height="36" fill="white"/>
</clipPath>
</defs>
</svg>
