<svg width="41" height="36" viewBox="0 0 41 36" fill="none" xmlns="http://www.w3.org/2000/svg">
<g clip-path="url(#clip0_1_231)">
<path d="M41 0H32.3725C29.4199 0 27.8989 1.11038 25.7708 3.78294C23.9015 6.13098 2.22399 32.5734 0 35.7391C13.6794 36.7 22.9141 26.1974 24.5022 24.2503L21.5848 23.4103V22.9458L25.0486 22.7549L27.4068 19.796L22.6968 17.7375L22.5403 17.1807L29.062 17.6771C31.7813 14.2696 32.9668 13.8878 33.2959 14.1487C33.625 14.4064 33.5452 15.6631 30.8259 19.0706L32.7911 25.2843L32.2095 25.2589L29.1259 21.1578L26.7646 24.1167L27.3621 27.5178L26.9083 27.626L25.4161 24.9725C24.1667 26.4329 19.8178 32.0548 23.1634 36.0032H40.9904V0H41Z" fill="url(#paint0_radial_1_231)"/>
<path fill-rule="evenodd" clip-rule="evenodd" d="M40.9863 0C36.417 9.0074 27.1203 15.2117 16.3613 15.3477C18.0139 13.3176 19.5856 11.3893 20.9589 9.70432C23.4479 6.65049 25.2855 4.39585 25.7735 3.78294C27.9016 1.11038 29.4226 0 32.3752 0H40.9863Z" fill="url(#paint1_radial_1_231)"/>
</g>
<defs>
<radialGradient id="paint0_radial_1_231" cx="0" cy="0" r="1" gradientUnits="userSpaceOnUse" gradientTransform="translate(41 -2.01018e-06) rotate(138.715) scale(54.5619 61.979)">
<stop stop-color="#9486E7"/>
<stop offset="1" stop-color="#2F1462"/>
</radialGradient>
<radialGradient id="paint1_radial_1_231" cx="0" cy="0" r="1" gradientUnits="userSpaceOnUse" gradientTransform="translate(41) rotate(147.995) scale(28.3019 45.6056)">
<stop stop-color="#FFF48E"/>
<stop offset="1" stop-color="#FF9900"/>
</radialGradient>
<clipPath id="clip0_1_231">
<rect width="41" height="36" fill="white"/>
</clipPath>
</defs>
</svg>
