<svg width="100" height="100" viewBox="0 0 100 100" fill="none" xmlns="http://www.w3.org/2000/svg">
<rect opacity="0.25" x="0.25" y="0.25" width="99.5" height="99.5" rx="19.75" fill="#AEEDB4" stroke="#3D7342" stroke-width="0.5"/>
<g clip-path="url(#clip0_1_127)">
<path d="M34 54H38L50 42" stroke="#514D59" stroke-width="4" stroke-linecap="round" stroke-linejoin="round"/>
<path d="M34 46H46V58" stroke="#514D59" stroke-width="4" stroke-linecap="round" stroke-linejoin="round"/>
<path d="M78 32H22V46C23.0609 46 24.0783 46.4214 24.8284 47.1716C25.5786 47.9217 26 48.9391 26 50C26 51.0609 25.5786 52.0783 24.8284 52.8284C24.0783 53.5786 23.0609 54 22 54V68H78V54C76.9391 54 75.9217 53.5786 75.1716 52.8284C74.4214 52.0783 74 51.0609 74 50C74 48.9391 74.4214 47.9217 75.1716 47.1716C75.9217 46.4214 76.9391 46 78 46V32Z" stroke="#514D59" stroke-width="4" stroke-linecap="round" stroke-linejoin="round"/>
<path d="M38 54V58" stroke="#514D59" stroke-width="4" stroke-linecap="round" stroke-linejoin="round"/>
<path d="M60 32V34" stroke="#514D59" stroke-width="4" stroke-linecap="round" stroke-linejoin="round"/>
<path d="M60 68V66" stroke="#514D59" stroke-width="4" stroke-linecap="round" stroke-linejoin="round"/>
</g>
<defs>
<clipPath id="clip0_1_127">
<rect width="64" height="64" fill="white" transform="translate(18 18)"/>
</clipPath>
</defs>
</svg>
